<svg xmlns="http://www.w3.org/2000/svg" viewBox="0 0 1132 195"><defs><style>.cls-1,.cls-3{fill:#60a2d7;}.cls-2,.cls-4{fill:#54565a;}.cls-3,.cls-4{fill-rule:evenodd;}</style></defs><title>ff8_for_lightBg</title><g id="ff_logo" data-name="ff logo"><polygon class="cls-1" points="9.3 157.36 9.3 33.84 87.99 33.84 87.99 47.54 24.25 47.54 24.25 87.36 86.73 87.36 86.73 101.06 24.25 101.06 24.25 157.36 9.3 157.36"/><polygon class="cls-1" points="108.35 157.36 108.35 33.84 123.29 33.84 123.29 143.66 179.11 143.66 179.11 157.36 108.35 157.36"/><path class="cls-1" d="M184.52,95.69c0-36.48,23.95-63.89,59.6-63.89,35.47,0,59.6,27.41,59.6,63.89s-24.13,63.89-59.6,63.89C208.47,159.58,184.52,132.17,184.52,95.69Zm103.72,0c0-28.89-17.29-50.19-44.12-50.19-27,0-44.11,21.3-44.11,50.19,0,28.71,17.1,50.19,44.11,50.19C271,145.88,288.24,124.4,288.24,95.69Z"/><path class="cls-1" d="M317.6,95.69c0-36.48,23.95-63.89,59.6-63.89,35.48,0,59.6,27.41,59.6,63.89s-24.12,63.89-59.6,63.89C341.55,159.58,317.6,132.17,317.6,95.69Zm103.72,0C421.32,66.8,404,45.5,377.2,45.5c-27,0-44.11,21.3-44.11,50.19,0,28.71,17.11,50.19,44.11,50.19C404,145.88,421.32,124.4,421.32,95.69Z"/><path class="cls-1" d="M520.36,157.36l-30.61-49.07H465.81v49.07H450.86V33.84h48.26c22,0,37.63,14.44,37.63,37.22,0,22.22-14.77,34.45-31.15,35.93L538,157.36Zm.9-86.3c0-13.89-9.72-23.52-23.95-23.52h-31.5V94.77h31.5C511.54,94.77,521.26,85,521.26,71.06Z"/><polygon class="cls-2" points="550.97 157.36 550.97 33.84 629.66 33.84 629.66 47.54 565.92 47.54 565.92 87.36 628.4 87.36 628.4 101.06 565.92 101.06 565.92 157.36 550.97 157.36"/><path class="cls-2" d="M868.12,157.36,837.5,108.29h-24v49.07H798.61V33.84h48.26c22,0,37.63,14.44,37.63,37.22,0,22.22-14.76,34.45-31.15,35.93l32.41,50.37Zm.89-86.3c0-13.89-9.72-23.52-23.94-23.52H813.55V94.77h31.52C859.29,94.77,869,85,869,71.06Z"/><path class="cls-2" d="M893.87,95.69c0-38,27.18-63.89,61.76-63.89,21.24,0,36,10.56,45.55,24.45l-12.6,7.22a40.24,40.24,0,0,0-33-18c-26.29,0-46.28,20.74-46.28,50.19,0,29.26,20,50.19,46.28,50.19a39.78,39.78,0,0,0,33-18l12.78,7.22c-10.08,14.07-24.49,24.44-45.73,24.44C921.05,159.58,893.87,133.66,893.87,95.69Z"/><polygon class="cls-2" points="1011.09 157.36 1011.09 33.84 1089.78 33.84 1089.78 47.54 1026.04 47.54 1026.04 87.36 1088.52 87.36 1088.52 101.06 1026.04 101.06 1026.04 143.66 1089.78 143.66 1089.78 157.36 1011.09 157.36"/><path class="cls-2" d="M1122.7,44c0,6.55-4.23,11-10.41,11-5.88,0-10.29-4.72-10.29-11s4.23-10.89,10.29-10.89C1118.6,33.13,1122.7,38,1122.7,44Zm-18.07,0c0,4.79,3.37,8.44,7.66,8.44,5,0,7.77-3.27,7.77-8.37s-3.12-8.51-7.77-8.51C1107.45,35.58,1104.63,39.36,1104.63,44Zm3.31,5V38.61h5c2.08,0,4.35.56,4.35,3a2.47,2.47,0,0,1-1.66,2.46c1.05.37,1.35,1.26,1.35,2.7,0,.51.06,1.7.12,2.27h-3.24a8.6,8.6,0,0,1-.18-2.14c0-1.2-.43-1.64-1.6-1.64h-.92v3.78Zm3.31-6.05h1.28c.86,0,1.29-.31,1.29-1.13s-.49-.94-1.41-.94h-1.16Z"/><path class="cls-3" d="M776.1,142c-2.23,1.5-1.3-5.58-4.5-7.19-4.21-2.12,4.26-9.73,6.11-11.88,2.44-2.24,4.36.15,4,5.68-.12,5.69-2.76,11.8-5.58,13.39"/><path class="cls-3" d="M747.4,122c-2.66-3.85-.18-9.11,5.27-12,5.51-2.63,12.22-2.16,15.33,1.2,3.26,3.83,2.13,12.81-4.47,12.7-11.5-.21-13.27,2.37-16.13-1.93"/><path class="cls-3" d="M777,52.4c1.73,2.35,7.23,8.91,7.76,13.7.26,5.08-4.91,7.06-7,5.36-2.7-1.72-2.46-8.55-4.87-13.68C768.71,49,774.71,50,777,52.4"/><path class="cls-3" d="M762.23,62.23c4.43.94,8.36,6.56,9.07,12.67.51,5.87-2,10.61-6.09,11l.07.06c-6.19.25-9.19,1.65-10.12,9.78,0,.18,0,.43,0,.62a15,15,0,0,1-.25,2.1h0c-1,5.41-4.88,9.58-9.59,10.34h0l-.86.1c-4.1.48-7.12,1.25-9.14,3.12-4.37,4.55-4.52,11.17-.69,15.18,4,3.59,7.9,1.32,11.82,2.58s6.1,5.12,5.43,9.94c-1,5.91-6.2,11.34-11.83,12.35-6,.92-10.49-3.22-9.93-9.47-.24-3.45-1.28-5.76-2.8-7.28-3.53-3-6.52-2.07-10.49-2.38h0a12.47,12.47,0,0,1-11.25-12.32,14,14,0,0,1,12.17-14.38h0c16.27-2,11.26-5.76,15.62-16.23,2-4.94,6.46-8.11,11.41-7.57h.36c3.29-.1,5.51-1,7-2.46,1.61-1.88,2.49-4.16,1.61-9.24.11.16.25.39.39.62.08-6,3.62-9.92,8.13-9.14"/><path class="cls-3" d="M736.85,166.75c5.22-1.33,7.9.62,6.28,4-1.71,2.82-6.7,6.22-11.19,7.83-4.89,1.44-8.16.37-7.12-2.74,1-3.71,6.44-7.89,12-9.09"/><path class="cls-3" d="M739.9,38.54A15.57,15.57,0,0,1,750.49,47a54.07,54.07,0,0,1,1.77,5.2c2,5.77,5.77,9.62,11,10.33-3.75,4.31-4.42,5-4.42,5s-1.39,0-4.62,6.27c-.67-5-1.66-7.18-3.48-9.26a12.94,12.94,0,0,0-7.21-3.46l-.9,0C736.27,60.48,730.55,54.56,730,48c-.6-6.23,3.88-10.37,9.87-9.44"/><path class="cls-3" d="M715.35,19.81c6.1.71,11.68,5,12.48,9.92.82,5.39-3.87,9.53-10.57,9-6.84-.38-12.66-5.41-12.86-10.94-.22-5.06,4.73-8.5,11-8"/><path class="cls-3" d="M692.27,171.14c9.55-3.27,11.58,3.33,11.29,7.16-.33,3.25-5.27,5.64-11,5.67-5.75-.2-13.71-3.94-11.18-5.95,2.37-1.87,5.49-5.46,10.91-6.88"/><path class="cls-3" d="M665,106.76c7.24.08,13.29,6.36,13.4,13.91.15,7.38-7.79,18-12.56,12.7-5.11-5.7-12.59-6.43-13-13.53-.27-7.28,5.09-13.18,12.12-13.08"/><path class="cls-3" d="M665.86,58.1c7-.29,5.52,7.31,12.54,12.72,5.87,4.52-6.15,13.81-13.4,13.91-7,.11-12.39-5.81-12.12-13.08s6.12-13.14,13-13.55"/><path class="cls-3" d="M728.49,12.12c4.49,1.61,9.48,5,11.19,7.82,1.62,3.38-1.06,5.34-6.28,4-5.59-1.2-11-5.39-12-9.09-1-3.12,2.23-4.19,7.12-2.74"/><path class="cls-4" d="M782.12,88c2.46.84,3.66,5.94,3,11.6-.89,5.53-3.44,10.08-6,10.09-3.18,0-5.2-5.36-4.21-11.67.8-6.43,4.2-10.89,7.25-10"/><path class="cls-4" d="M759,146.27c4.19-1.45,8.16,3.24,4.21,5.7-5.75,3.59-6.19,8.66-9.88,10.58-4.2,1.82-6.63-.17-5.22-4.72,1.25-5,6.26-10.25,10.89-11.56"/><path class="cls-4" d="M753.4,29a25.55,25.55,0,0,1,9.87,10.59c1.72,4.49,0,7.23-4.21,5.78-4.65-1.31-9.63-6.6-10.92-11.62-1.4-4.55,1.06-6.56,5.26-4.75"/><path class="cls-4" d="M719.49,153c5.44.47,9,4.21,8.31,8.94s-6.36,9.16-12.47,9.88c-4.86.42-8.94-1.54-10.38-4.81-.09-.18-.39-1.26-.39-1.26-.64-9.27-3.66-9.45-13.82-10.33h0c-6.36-.71-11.45-5.61-11.73-11.66-.19-6.78,5.54-12.4,12.91-12.32s13.09,5.47,13.13,12.14c.54,3.47,1.84,5.71,3.52,7.12,4.42,3.18,6.75,1.9,10.92,2.3"/><path class="cls-4" d="M690.43,80.82c.24,0,.47,0,.7,0,4.92-.14,8.3-1.41,10.6-3.35,4.68-4.55,2.91-8.42,4.57-13.2A23.47,23.47,0,0,1,719.78,51C729,47.79,734,62.13,734.4,70.12a13.91,13.91,0,0,1-10.81,14.37c-4,.87-9.5-.74-13.49,2.65-2.44,2.43-4.22,6.39-4.73,12.69l-.08-4.23c1.26,13.51-7.56,16.45-14.86,16.46A15.65,15.65,0,0,1,689,80.88l-.07-.06.65,0c.28,0,.56,0,.84,0"/><path class="cls-4" d="M692.1,35.1c7,0,12.75,5.07,12.92,11.49.14,6.77-7.82,15.86-15.18,15.31-13.72-1-11-8.41-10.76-15.16.26-6.4,6.07-11.51,13-11.64"/><path class="cls-4" d="M690.93,11.71c5.56-1.5,10.94-.5,12.07,2.56,1.24,3.63-2.8,8.21-9.12,9.92-6.21,1.87-11.7,0-12.26-3.76-.33-3.27,3.8-7,9.31-8.72"/><path class="cls-4" d="M669.6,156.08c5.15,2.63,8.57,7,7.47,10.08-1.38,3.57-7.34,4.31-13.2,1.33-5.89-2.78-8.85-7.88-6.86-11.11,1.84-2.69,7.33-2.71,12.59-.3"/><path class="cls-3" d="M655.33,31.93c1.7-2.38,6.46-5.55,10.78-7.42,4.66-1.69,7.78-1.25,6.79,1.34-.84,3.15-6,13.51-11.39,15-5.07,1.64-7.75-6-6.18-8.9"/><path class="cls-3" d="M651.14,147.79c-.06,2.64-2.18-.12-6.92-1.52-10.26-3-8.77-10.7-9.44-13.41-.4-3.23,8.63-5.91,13.68-.92,4,3.94,3,12.7,2.68,15.85"/></g></svg>