<?xml version="1.0" encoding="utf-8"?>
<!-- Generator: Adobe Illustrator 24.0.0, SVG Export Plug-In . SVG Version: 6.00 Build 0)  -->
<svg version="1.1" id="Layer_1" xmlns="http://www.w3.org/2000/svg" xmlns:xlink="http://www.w3.org/1999/xlink" x="0px" y="0px"
	 viewBox="0 0 721.2 203.1" style="enable-background:new 0 0 721.2 203.1;" xml:space="preserve">
<style type="text/css">
	.st0{enable-background:new    ;}
	.st1{fill:#343F3E;}
	.st2{fill:#12A3FC;}
</style>
<title>broadlume_logo</title>
<g class="st0">
	<path class="st1" d="M209.1,85c12.5,0,21.7,9.1,21.7,23.3s-9.2,23.5-21.7,23.5c-9.1,0-15.3-4.7-18.1-10.7v10h-5.7V69.5h5.7v26.2
		C193.9,89.7,200.2,85,209.1,85z M207.9,90c-9.2,0-16.9,7-16.9,18.3s7.7,18.3,16.9,18.3c9.6,0,16.9-6.9,16.9-18.4
		C224.8,96.7,217.5,90,207.9,90z"/>
	<path class="st1" d="M247.3,131.1h-5.8V85.6h5.8v8.1c2.5-5.6,7.7-8.9,15.6-8.9v6.1h-1.6c-7.6,0-14,3.4-14,14.8L247.3,131.1
		L247.3,131.1z"/>
	<path class="st1" d="M291.5,131.8c-12.8,0-22.6-9-22.6-23.4c0-14.5,10-23.4,22.7-23.4c12.8,0,22.7,8.9,22.7,23.4
		C314.5,122.8,304.4,131.8,291.5,131.8z M291.5,126.7c8.6,0,16.9-5.8,16.9-18.3S300.3,90,291.6,90s-16.7,5.8-16.7,18.3
		S282.9,126.7,291.5,126.7z"/>
	<path class="st1" d="M344.2,85c9.2,0,15.4,4.9,18,10.7v-10h5.8v45.5h-5.8V121c-2.7,5.8-9,10.7-18.1,10.7
		c-12.4,0-21.7-9.2-21.7-23.5S331.7,85,344.2,85z M345.3,90c-9.6,0-16.9,6.7-16.9,18.2s7.3,18.4,16.9,18.4c9.3,0,16.9-7,16.9-18.3
		S354.6,90,345.3,90z"/>
	<path class="st1" d="M400.5,85c8.2,0,15,4.5,17.9,10.5v-26h5.8v61.6h-5.8v-10.2c-2.7,6-9,10.8-18,10.8c-12.5,0-21.7-9.2-21.7-23.5
		S387.9,85,400.5,85z M401.5,90c-9.6,0-16.9,6.7-16.9,18.2s7.3,18.4,16.9,18.4c9.3,0,16.9-7,16.9-18.3S410.8,90,401.5,90z"/>
</g>
<path class="st2" d="M435,69.5h11.6V131H435V69.5z"/>
<path class="st2" d="M629.6,130.8c-13.4,0-23.1-9.3-23.1-23.8c0-11.3,9.5-23.8,23.1-23.8c13.3,0,22.7,9.1,22.7,22.8
	c0,1.5-0.1,3-0.3,4.5h-33.7c0.6,6.8,5.2,10.7,11.1,10.7c5,0,7.7-2.5,9.2-5.6h12.6C648.7,124,641,130.8,629.6,130.8z M618.4,102.6
	h21.9c-0.2-6.1-5-9.9-10.9-9.9C623.7,92.7,619.3,96.3,618.4,102.6z"/>
<path class="st2" d="M575.1,83c-5.9,0.1-11.6,2.7-15.5,7.1c0,0,0,0-0.1,0c-4.1-4.7-10.1-7.3-16.3-7.2c-5.9,0.1-11.6,2.7-15.5,7.1
	c0,0-0.1,0.1-0.1,0l0,0c-8-8.8-21.6-9.6-30.4-1.6c-4.3,3.8-6.8,9.2-7.1,15H490c0,0-0.4,3.9-0.5,5.5c-0.2,5.9-4.3,10.6-10.2,10.5
	c-5.9-0.2-10.5-5.1-10.4-10.9V83.2h-11.1v25.2c0,12.5,10.4,22.9,22.9,22.2c11.2-0.6,19.2-9,19.9-21.6c0.1-1.4,0.5-4.4,0.5-4.4
	c-0.2-5.8,4.4-10.7,10.3-10.8c5.8-0.2,10.7,4.4,10.8,10.3c0,0.2,0,0.4,0,0.6v26.1h11.1v-26.1c-0.2-5.8,4.4-10.7,10.2-10.9
	c5.8-0.2,10.7,4.4,10.9,10.2c0,0.2,0,0.4,0,0.6v26.1h10.8v-26c-0.2-5.8,4.4-10.7,10.2-10.9c5.8-0.2,10.7,4.4,10.9,10.2
	c0,0.2,0,0.4,0,0.6v26.1h11.1v-25.5C597.2,93.1,587.3,82.8,575.1,83z"/>
<rect x="65.8" y="101.5" transform="matrix(0.7071 -0.7071 0.7071 0.7071 -60.8454 81.6545)" class="st2" width="4.7" height="25.6"/>
<rect x="70.6" y="96.6" transform="matrix(0.7071 -0.7071 0.7071 0.7071 -55.9368 83.5934)" class="st2" width="4.6" height="25.4"/>
<rect x="75.5" y="91.7" transform="matrix(0.7071 -0.7071 0.7071 0.7071 -51.0352 85.6188)" class="st2" width="4.6" height="25.4"/>
<rect x="80.5" y="86.8" transform="matrix(0.7071 -0.7071 0.7071 0.7071 -46.0823 87.6893)" class="st2" width="4.6" height="25.4"/>
<rect x="86.6" y="123.9" transform="matrix(0.7071 -0.7071 0.7071 0.7071 -57.1565 114.333)" class="st2" width="45.7" height="4.5"/>
<rect x="81.7" y="119" transform="matrix(0.7071 -0.7071 0.7071 0.7071 -55.1675 109.4696)" class="st2" width="45.7" height="4.6"/>
<rect x="76.9" y="114.2" transform="matrix(0.7071 -0.7071 0.7071 0.7071 -53.1183 104.6666)" class="st2" width="45.7" height="4.6"/>
<rect x="72" y="109.3" transform="matrix(0.7071 -0.7071 0.7071 0.7071 -51.1146 99.7678)" class="st2" width="45.7" height="4.6"/>
<rect x="86.5" y="84.9" transform="matrix(0.7071 -0.7071 0.7071 0.7071 -29.5537 103.0325)" class="st2" width="46.1" height="4.6"/>
<rect x="81.6" y="80" transform="matrix(0.7071 -0.7071 0.7071 0.7071 -27.5459 98.1295)" class="st2" width="46.1" height="4.6"/>
<rect x="76.8" y="75.1" transform="matrix(0.7071 -0.7071 0.7071 0.7071 -25.4716 93.26)" class="st2" width="46.1" height="4.6"/>
<rect x="71.9" y="70.3" transform="matrix(0.7071 -0.7071 0.7071 0.7071 -23.4971 88.4319)" class="st2" width="46.1" height="4.6"/>
<rect x="119.3" y="86.8" transform="matrix(0.7071 -0.7071 0.7071 0.7071 -34.6768 115.0649)" class="st2" width="4.6" height="25.2"/>
<rect x="124.1" y="81.9" transform="matrix(0.7071 -0.7071 0.7071 0.7071 -29.7828 117.0886)" class="st2" width="4.6" height="25.2"/>
<rect x="129.1" y="77" transform="matrix(0.7071 -0.7071 0.7071 0.7071 -24.872 119.1539)" class="st2" width="4.6" height="25.2"/>
<rect x="134.1" y="72" transform="matrix(0.7071 -0.7071 0.7071 0.7071 -19.8789 121.243)" class="st2" width="4.6" height="25.2"/>
<rect x="120.9" y="118.8" transform="matrix(0.7071 -0.7071 0.7071 0.7071 -43.5162 137.1314)" class="st2" width="45.7" height="4.6"/>
<rect x="116" y="113.9" transform="matrix(0.7071 -0.7071 0.7071 0.7071 -41.5125 132.2326)" class="st2" width="45.7" height="4.6"/>
<rect x="111.2" y="109.1" transform="matrix(0.7071 -0.7071 0.7071 0.7071 -39.4633 127.4297)" class="st2" width="45.7" height="4.6"/>
<rect x="102.1" y="141.5" transform="matrix(0.7071 -0.7071 0.7071 0.7071 -75.9662 117.9588)" class="st2" width="4.6" height="18.3"/>
<rect x="107.1" y="136.5" transform="matrix(0.7071 -0.7071 0.7071 0.7071 -70.9636 119.9828)" class="st2" width="4.6" height="18.3"/>
<rect x="112" y="131.6" transform="matrix(0.7071 -0.7071 0.7071 0.7071 -66.057 122.0523)" class="st2" width="4.6" height="18.3"/>
<rect x="116.9" y="126.7" transform="matrix(0.7071 -0.7071 0.7071 0.7071 -61.1627 124.1094)" class="st2" width="4.6" height="18.3"/>
</svg>
