<?xml version="1.0" encoding="utf-8"?>
<!-- Generator: Adobe Illustrator 24.0.0, SVG Export Plug-In . SVG Version: 6.00 Build 0)  -->
<svg version="1.1" id="Layer_1" xmlns="http://www.w3.org/2000/svg" xmlns:xlink="http://www.w3.org/1999/xlink" x="0px" y="0px"
	 viewBox="0 0 721.2 203.1" style="enable-background:new 0 0 721.2 203.1;" xml:space="preserve">
<style type="text/css">
	.st0{fill:#88CE08;}
	.st1{fill:#FFBA00;}
</style>
<title>broadlume_logo</title>
<path class="st0" d="M95.2,42.7c3.4,2.2,5.5,5.9,6.2,11.2h-8c-0.5-2.4-1.6-4.5-3.3-6.1c-1.7-1.6-4.5-2.4-8.3-2.4
	c-5.2,0-8.9,2.1-11.2,6.2c-1.5,2.7-2.2,6-2.2,10c0,4,1,7.3,3.1,10c2.1,2.7,5.3,4.1,9.7,4.1c3.4,0,6.1-0.8,8.1-2.5
	c2-1.7,3.4-4,4.1-6.9h8c-0.9,5.3-3.2,9.1-6.8,11.5c-3.6,2.4-8.3,3.6-14,3.6c-6.4,0-11.4-1.9-15.2-5.7c-3.8-3.8-5.7-8.5-5.7-14.2
	c0-7,2.1-12.4,6.2-16.3s9.4-5.8,15.9-5.8C87.3,39.5,91.7,40.6,95.2,42.7z"/>
<path class="st0" d="M109.8,40.6h7.8v6.9c0.6-1.3,2.2-3,4.7-4.9c2.5-1.9,5.4-2.9,8.6-2.9c0.2,0,0.4,0,0.8,0c0.4,0,1,0.1,1.9,0.1v7
	c-0.5-0.1-0.9-0.1-1.3-0.1c-0.4,0-0.9,0-1.3,0c-4.1,0-7.3,1.1-9.5,3.2c-2.2,2.2-3.3,4.6-3.3,7.5v22.8h-8.2V40.6z"/>
<path class="st0" d="M170.7,41.7c3.2,1.3,5.7,3,7.4,5.1c1.6,2,2.7,4.3,3.3,7c0.5,1.8,0.7,4.7,0.7,8.7h-35.4c0.2,4,1.3,7.3,3.5,9.7
	s5.5,3.7,10.1,3.7c4.2,0,7.6-1.2,10.2-3.5c1.4-1.3,2.4-2.9,3-4.7h8c-0.2,1.5-0.9,3.1-2.1,4.9c-1.2,1.8-2.5,3.3-4,4.4
	c-2.5,2-5.5,3.3-9.2,4c-2,0.4-4.2,0.6-6.6,0.6c-6,0-11.1-1.8-15.3-5.4c-4.2-3.6-6.3-8.6-6.3-15.1c0-6.4,2.1-11.5,6.3-15.5
	c4.2-4,9.7-6,16.5-6C164.1,39.7,167.4,40.4,170.7,41.7z M173.6,57.3c-0.3-2.9-1.1-5.2-2.3-6.9c-2.2-3.2-5.9-4.8-11.1-4.8
	c-3.7,0-6.9,1.1-9.4,3.3c-2.5,2.2-3.9,5-4,8.4H173.6z"/>
<path class="st0" d="M218.5,56.3c1.9-0.2,3.1-0.8,3.8-1.9c0.4-0.6,0.5-1.4,0.5-2.6c0-2.3-1-3.9-3-5c-2-1-4.8-1.5-8.5-1.5
	c-4.3,0-7.3,0.9-9.1,2.8c-1,1-1.6,2.6-2,4.7h-7.6c0.2-4.9,2.1-8.3,5.8-10.2c3.7-1.9,8.1-2.9,13-2.9c5.7,0,10.4,0.9,13.9,2.7
	c3.5,1.8,5.3,4.5,5.3,8.3v22.9c0,0.7,0.2,1.2,0.5,1.7c0.3,0.4,1.1,0.6,2.2,0.6c0.4,0,0.8,0,1.2-0.1c0.5,0,0.9-0.1,1.5-0.2v4.9
	c-1.3,0.3-2.2,0.5-2.9,0.6c-0.7,0.1-1.6,0.1-2.7,0.1c-2.8,0-4.9-0.8-6.1-2.4c-0.7-0.9-1.1-2.1-1.4-3.7c-1.7,1.8-4.1,3.3-7.2,4.6
	c-3.1,1.3-6.6,2-10.3,2c-4.5,0-8.2-1.1-11.1-3.3c-2.9-2.2-4.3-5-4.3-8.4c0-3.7,1.4-6.5,4.2-8.5s6.5-3.3,11.1-3.7L218.5,56.3z
	 M201.2,74.3c1.7,1.1,3.8,1.7,6.1,1.7c2.9,0,5.7-0.5,8.4-1.6c4.5-1.8,6.8-4.7,6.8-8.8v-5.4c-1,0.5-2.3,1-3.9,1.3
	c-1.6,0.3-3.1,0.6-4.6,0.7l-4.9,0.5c-3,0.3-5.2,0.8-6.7,1.5c-2.5,1.2-3.8,3-3.8,5.5C198.6,71.7,199.5,73.2,201.2,74.3z"/>
<path class="st0" d="M245.8,29.6h8.3v11.1h7.8v5.4h-7.8V72c0,1.4,0.6,2.3,1.7,2.8c0.6,0.3,1.7,0.4,3.2,0.4c0.4,0,0.8,0,1.3,0
	s1-0.1,1.6-0.1v5.3c-0.9,0.2-1.9,0.4-2.9,0.5c-1,0.1-2.1,0.1-3.3,0.1c-3.8,0-6.4-0.8-7.8-2.4c-1.4-1.6-2-3.7-2-6.2V46.1h-6.6v-5.4
	h6.6V29.6z"/>
<path class="st0" d="M270,40.8h8.3v39.5H270V40.8z"/>
<path class="st0" d="M290.7,40.6h7.8v5.6c2.3-2.3,4.7-4,7.3-5c2.6-1,5.4-1.5,8.6-1.5c6.9,0,11.6,2,14,5.9c1.3,2.1,2,5.2,2,9.2v25.4
	h-8.3v-25c0-2.4-0.4-4.4-1.3-5.9c-1.5-2.5-4.1-3.7-7.9-3.7c-1.9,0-3.5,0.2-4.8,0.5c-2.2,0.5-4.2,1.6-5.9,3.3
	c-1.4,1.3-2.3,2.7-2.7,4.1c-0.4,1.4-0.6,3.4-0.6,6v20.8h-8.2V40.6z"/>
<path class="st0" d="M369.6,42.2c1.5,0.9,3.1,2.1,4.7,3.8v-5h7.5v36.1c0,5-0.9,9-2.7,11.9c-3.4,5.4-9.8,8.1-19.2,8.1
	c-5.2,0-9.6-1-13.2-2.9c-3.6-1.9-5.6-4.9-6-9h8.3c0.4,1.8,1.2,3.1,2.4,4.1c1.8,1.5,4.7,2.2,8.7,2.2c6.2,0,10.3-1.8,12.3-5.4
	c1.1-2.1,1.7-5.9,1.6-11.4c-1.6,2-3.6,3.5-5.9,4.5c-2.3,1-5.3,1.5-9.1,1.5c-5.3,0-9.9-1.5-13.8-4.6c-3.9-3-5.9-8.1-5.9-15.1
	c0-6.6,2-11.8,6-15.6c4-3.7,8.8-5.6,14.4-5.6C363.4,39.9,366.8,40.7,369.6,42.2z M370.6,49.4c-2.5-2.4-5.6-3.6-9.5-3.6
	c-5.7,0-9.7,2.2-11.8,6.6c-1.1,2.3-1.7,5.4-1.7,9.2c0,4.5,1.1,7.9,3.3,10.2s5.2,3.5,8.9,3.5c5.9,0,10-2.2,12.4-6.5
	c1.3-2.4,2-5.3,2-8.6C374.3,55.4,373.1,51.7,370.6,49.4z"/>
<path class="st0" d="M450.6,40.6h9C458.5,43.2,456,49,452,58c-3,6.8-5.5,12.4-7.5,16.7c-4.7,10.1-8.1,16.3-10,18.5
	c-1.9,2.2-5.3,3.3-10,3.3c-1.2,0-2,0-2.7-0.1c-0.6-0.1-1.4-0.2-2.3-0.4V90c1.4,0.3,2.5,0.5,3.1,0.6c0.6,0.1,1.2,0.1,1.7,0.1
	c1.5,0,2.6-0.2,3.3-0.6c0.7-0.4,1.3-0.9,1.8-1.5c0.2-0.2,0.7-1.2,1.6-3c0.9-1.8,1.6-3.2,2-4.1l-18-40.8h9.3l13.1,32.3L450.6,40.6z"
	/>
<path class="st0" d="M502,44.6c4.3,3.4,6.5,8.4,6.5,15c0,6.4-1.9,11.7-5.7,15.8c-3.8,4.2-9.7,6.3-17.7,6.3c-6.7,0-11.9-1.8-15.8-5.5
	c-3.9-3.7-5.9-8.6-5.9-14.9c0-6.7,2.1-12,6.2-15.9c4.1-3.9,9.7-5.9,16.6-5.9C492.5,39.5,497.7,41.2,502,44.6z M497,71
	c2-3.3,3-7.1,3-11.2c0-3.7-0.7-6.7-2.2-9c-2.3-3.6-6.2-5.5-11.8-5.5c-4.9,0-8.5,1.6-10.8,4.7c-2.2,3.1-3.4,6.9-3.4,11.2
	c0,4.2,1.1,7.7,3.4,10.5c2.2,2.8,5.8,4.2,10.7,4.2C491.3,76,495,74.3,497,71z"/>
<path class="st0" d="M526.7,40.6V67c0,2,0.4,3.7,1.2,5c1.4,2.4,4.1,3.6,7.9,3.6c5.5,0,9.3-2.1,11.3-6.2c1.1-2.2,1.6-5.3,1.6-9.1
	V40.6h8.2v39.7h-7.7l0.1-5.9c-1,1.5-2.3,2.8-3.9,3.8c-3.1,2.1-6.8,3.1-11.2,3.1c-6.8,0-11.5-1.9-13.9-5.7c-1.3-2-2-4.7-2-8.1v-27
	H526.7z"/>
<path class="st0" d="M570.6,40.6h7.8v6.9c0.6-1.3,2.2-3,4.7-4.9c2.5-1.9,5.4-2.9,8.6-2.9c0.2,0,0.4,0,0.8,0c0.4,0,1,0.1,1.9,0.1v7
	c-0.5-0.1-0.9-0.1-1.3-0.1c-0.4,0-0.9,0-1.3,0c-4.1,0-7.3,1.1-9.5,3.2c-2.2,2.2-3.3,4.6-3.3,7.5v22.8h-8.2V40.6z"/>
<g>
	<path class="st0" d="M217.5,145.6c0.5,3.1,1.5,5.2,3.2,6.5c2.9,2.3,8.2,3.4,15.9,3.4c4.5,0,8.2-0.5,10.8-1.5c2.7-1,4-2.5,4-4.5
		c0-1.9-1.1-3.4-3.2-4.4c-2.2-1-10.2-2.7-24.1-5.2c-10-1.8-17-4.2-21.1-6.9c-4.1-2.7-6.1-6.7-6.1-11.8c0-6.1,3.2-11.3,9.6-15.6
		c6.4-4.4,15.4-6.5,27-6.5c11,0,20,1.6,26.9,4.9c6.9,3.3,10.9,8.9,11.9,17h-23c-0.3-2.2-1.2-4-2.5-5.2c-2.5-2.3-6.9-3.5-13-3.5
		c-5,0-8.6,0.6-10.7,1.7c-2.1,1.2-3.2,2.5-3.2,4.1c0,2,1.1,3.4,3.4,4.3c2.3,0.9,10.3,2.5,24,4.8c9.2,1.6,16,4,20.6,7.3
		c4.5,3.3,6.8,7.4,6.8,12.4c0,6.5-3.2,11.8-9.7,15.9s-16.5,6.2-30.1,6.2c-13.9,0-24.1-2.2-30.7-6.5c-6.6-4.4-9.9-9.9-9.9-16.7H217.5
		z"/>
	<path class="st0" d="M365.6,107.9c7.2,5.7,10.8,14,10.8,25c0,11.6-3.5,20.4-10.5,26.5c-7,6.1-16,9.1-27.1,9.1
		c-7,0-12.9-1.3-17.6-3.9c-2.5-1.4-5-3.6-7.5-6.3v34.2H291v-91.5h22v9.7c2.5-2.9,5.1-5.1,8-6.8c5.1-2.9,11.3-4.4,18.4-4.4
		C349.7,99.4,358.5,102.2,365.6,107.9z M348,120.3c-3.1-3.9-8.2-5.8-15.2-5.8c-8.4,0-14.2,3-17.4,8.9c-1.6,3.1-2.4,7.1-2.4,11.9
		c0,7.6,2.7,13,8.2,16.1c3.3,1.8,7.1,2.7,11.6,2.7c6.5,0,11.4-1.8,14.8-5.5c3.4-3.7,5.1-8.6,5.1-14.8
		C352.7,128.6,351.1,124.2,348,120.3z"/>
	<path class="st0" d="M427.5,126.6c4.3-0.4,7.3-0.9,9.2-1.5c3.3-1,5-2.7,5-4.9c0-2.7-1.3-4.5-3.8-5.6s-6.3-1.5-11.2-1.5
		c-5.5,0-9.4,1-11.7,3c-1.6,1.5-2.7,3.5-3.3,6h-22.2c0.5-5.7,2.6-10.5,6.5-14.2c6.1-5.8,16.6-8.7,31.5-8.7c9.7,0,18.3,1.4,25.8,4.3
		c7.5,2.9,11.3,8.2,11.3,16.2v30.1c0,2.1,0.1,4.6,0.2,7.6c0.2,2.2,0.6,3.8,1.4,4.6c0.8,0.8,1.9,1.5,3.4,2v2.5h-25
		c-0.7-1.3-1.2-2.6-1.5-3.7c-0.3-1.2-0.5-2.5-0.6-4c-3.2,2.6-6.9,4.8-11,6.6c-5,2.1-10.6,3.2-16.9,3.2c-8,0-14.6-1.7-19.9-5.1
		c-5.2-3.4-7.8-8.2-7.8-14.4c0-8.1,4.2-13.9,12.6-17.5c4.6-2,11.4-3.4,20.3-4.2L427.5,126.6z M441.6,134.6c-1.5,0.7-3,1.2-4.5,1.7
		c-1.5,0.4-3.6,0.8-6.2,1.2l-5.2,0.7c-4.9,0.6-8.4,1.4-10.6,2.4c-3.6,1.6-5.4,4-5.4,7.3c0,2.9,1.1,5.1,3.3,6.4c2.2,1.3,4.9,2,8.1,2
		c5,0,9.7-1.1,13.9-3.3c4.2-2.2,6.4-6.1,6.6-11.9V134.6z"/>
	<path class="st0" d="M537.2,124.4c-0.4-2.5-1.5-4.7-3.3-6.6c-2.6-2.7-6.6-4-12.1-4c-7.8,0-13.1,2.9-15.9,8.6
		c-1.5,3-2.3,7.1-2.3,12.1c0,4.8,0.8,8.7,2.3,11.6c2.8,5.5,7.9,8.2,15.5,8.2c5.4,0,9.2-1.1,11.5-3.3s3.6-5,4.1-8.4h23.5
		c-0.5,5.2-3.1,10.2-7.6,14.8c-7.2,7.5-17.9,11.3-32.1,11.3c-14.2,0-24.6-3.1-31.3-9.4c-6.7-6.3-10-14.4-10-24.4
		c0-11.3,3.7-20,11.1-26.3c7.4-6.3,17.6-9.4,30.6-9.4c11,0,20.1,1.8,27.1,5.5c7,3.7,11.2,10.2,12.5,19.6H537.2z"/>
	<path class="st0" d="M633.9,102.2c6.1,2.1,11.2,5.3,15.2,9.7c3.6,3.9,5.9,8.4,7,13.6c0.6,3,0.9,7.4,0.8,13h-64.1
		c0.4,6.6,3.4,11.2,9.2,13.9c3.5,1.6,7.7,2.5,12.7,2.5c5.2,0,9.5-1,12.8-3c1.8-1.1,3.4-2.6,4.7-4.5h23.5c-0.6,3.9-3.5,7.9-8.5,11.9
		c-7.9,6.4-18.9,9.6-33.1,9.6c-11.7,0-22-2.7-31-8.1c-9-5.4-13.4-14.2-13.4-26.3c0-11.4,4-20.1,12.1-26.2c8.1-6.1,18.6-9.1,31.5-9.1
		C620.9,99.1,627.8,100.1,633.9,102.2z M599.5,117c-3.3,2.5-5.3,5.9-6.1,10.2H633c-0.4-4.6-2.5-8-6.1-10.4
		c-3.7-2.4-8.2-3.5-13.6-3.5C607.3,113.3,602.7,114.5,599.5,117z"/>
</g>
<circle class="st1" cx="274.2" cy="22.8" r="14.9"/>
<g>
	<path class="st0" d="M662.2,96.1v1.5h-2.6v7.1h-1.8v-7.1h-2.6v-1.5H662.2z"/>
	<path class="st0" d="M669,96.1h2.6v8.6h-1.7v-5.8c0-0.2,0-0.4,0-0.7s0-0.5,0-0.7l-1.6,7.2h-1.8l-1.6-7.2c0,0.2,0,0.4,0,0.7
		s0,0.5,0,0.7v5.8h-1.7v-8.6h2.6l1.6,6.8L669,96.1z"/>
</g>
</svg>
