<svg id="Layer_1" data-name="Layer 1" xmlns="http://www.w3.org/2000/svg" viewBox="0 0 720 223"><defs><style>.cls-1{fill:#37474f;}.cls-2{fill:#1ccb8d;}.cls-2,.cls-3{fill-rule:evenodd;}.cls-3{fill:#fff;}</style></defs><title>Logos</title><path class="cls-1" d="M348.62,157.27l-7.4-18.39H301.65l-7.4,18.39h-7.4l30.6-74.78h8L356,157.27ZM321.49,89.33l-17.71,43.72h35.31Z"/><path class="cls-1" d="M402.86,157.27v-8.63a23.1,23.1,0,0,1-18.84,10c-14.35,0-24.1-11-24.1-28.36,0-17.15,9.75-28.47,24.1-28.47a22.83,22.83,0,0,1,18.84,10.09V82.49h5.94v74.78Zm0-13.57V116.91A21.64,21.64,0,0,0,385,107c-12,0-18.94,10.09-18.94,23.21s7,23.1,18.94,23.1C392.65,153.35,399.72,148.86,402.86,143.7Z"/><path class="cls-1" d="M482.11,157.27V121.73H434.69v35.54H428.3V82.49h6.39V115.9h47.42V82.49h6.39v74.78Z"/><path class="cls-1" d="M535.84,157.27v-6.39c-4.82,5.27-10.87,7.73-18.39,7.73-9.3,0-18.94-6.39-18.94-18.05s9.53-17.93,18.94-17.93c7.52,0,13.68,2.46,18.39,7.73v-11c0-8.08-6.5-12.45-14.46-12.45-6.84,0-12.11,2.36-17,8l-3.25-4c5.6-6.06,11.88-9.08,20.85-9.08,11,0,19.73,5.26,19.73,17.37v38.12Zm0-10.65V134.74c-3.81-5.05-9.87-7.52-16.37-7.52-8.85,0-14.8,5.72-14.8,13.46S510.62,154,519.47,154C526,154,532,151.55,535.84,146.62Z"/><path class="cls-1" d="M605.27,157.27,590.13,111l-15.24,46.3h-5.61l-17.6-54.15H558l14.35,46,15.24-46h5.05l15.25,46,14.35-46h6.27l-17.6,54.15Z"/><path class="cls-1" d="M676,157.27,654.4,131.48,644.31,141v16.26h-5.83V82.49h5.83v51.57l31.84-30.94H684l-25.22,24.44,25.11,29.71Z"/><path class="cls-2" d="M258.71,54.36h-225a3.31,3.31,0,0,0-2.28,5.71l26.3,25.07a3.28,3.28,0,0,1,.7,3.83,46.05,46.05,0,0,0-4.85,21.86c.64,25.28,22,45.13,47.31,45.13h23.63a3.32,3.32,0,0,1,2.86,1.65l16,27.49a3.31,3.31,0,0,0,5.72,0l16-27.49a3.3,3.3,0,0,1,2.86-1.65h23.63c25.29,0,46.66-19.85,47.31-45.13A46.17,46.17,0,0,0,234,89a3.28,3.28,0,0,1,.69-3.83L261,60.07A3.31,3.31,0,0,0,258.71,54.36Z"/><path class="cls-3" d="M144.64,108.23,134,137.05a1.64,1.64,0,0,0,.11,1.37l10.59,19.22a1.66,1.66,0,0,0,2.9,0l10.6-19.22a1.64,1.64,0,0,0,.1-1.37l-10.59-28.82A1.66,1.66,0,0,0,144.64,108.23Z"/><path class="cls-3" d="M81.11,104.16c.06.52.11,1.46.25,2.37,1.24,8.31,5.71,14,13.22,16.65s14.35.83,20.21-4.86c.61-.59.7-1,0-1.59-1.9-1.67-3.74-3.41-5.55-5.17-.62-.6-1-.71-1.69,0a9.72,9.72,0,0,1-13.42,0,10.79,10.79,0,0,1-1.37-13.81c.49-.69.55-1.06-.12-1.66-1.9-1.67-3.76-3.39-5.56-5.18-.77-.77-1.14-.55-1.71.22A22,22,0,0,0,81.11,104.16Z"/><path class="cls-3" d="M211.31,103.21A21.17,21.17,0,0,0,207,91c-.56-.75-.93-.84-1.63-.15q-2.71,2.65-5.55,5.18c-.64.57-.67.93-.16,1.65a10.17,10.17,0,0,1,1.62,8.51c-1.77,7.69-10.64,10.62-16.33,5.39-.74-.67-1.12-.67-1.8,0-1.73,1.72-3.51,3.39-5.35,5-.83.73-.79,1.14,0,1.91a19.28,19.28,0,0,0,21.46,4.21C206.53,119.48,211.29,112,211.31,103.21Z"/></svg>