<svg id="Layer_1" data-name="Layer 1" xmlns="http://www.w3.org/2000/svg" viewBox="0 0 720 223"><defs><style>.cls-1{fill:#55575b;}.cls-1,.cls-2{fill-rule:evenodd;}.cls-2{fill:#619fd2;}</style></defs><title>Logos</title><path class="cls-1" d="M442.09,69.74a7.35,7.35,0,0,1,5.07.34,2.88,2.88,0,0,1,1.66,2.17,2.71,2.71,0,0,1-.3,1.55c-1.39,3.41-14.4,7-12.18.34A7.55,7.55,0,0,1,442.09,69.74Z"/><path class="cls-2" d="M462.77,70.31c2,.26,4.29,1.48,6.85,4.33.42.48.95,1.59.53,2.2a1.79,1.79,0,0,1-1.85.77c-5.59-.48-7.44-2.45-9.13-5.11a1.51,1.51,0,0,1-.23-.52,1.56,1.56,0,0,1,1.26-1.81,1,1,0,0,1,.24,0A15.13,15.13,0,0,1,462.77,70.31Z"/><path class="cls-2" d="M453.8,74.89c4.74,0,6.12,1.56,8.09,3.92a4.09,4.09,0,0,1,.95,3v0a4,4,0,0,1-1.1,2.47,5.62,5.62,0,0,1-1.38,1C455,88.49,449,82.52,449.2,79.88a5.34,5.34,0,0,1,3.14-4.69A4.05,4.05,0,0,1,453.8,74.89Z"/><path class="cls-2" d="M427.23,77.4c1.52-.6,3.13-.81,3.49-.47.51.51.48.94.21,1.85-1.13,3.92-4.86,8.93-8.11,8.18-1.75-.79-3-2-2.36-4.4C421.24,79.68,424.84,78.31,427.23,77.4Z"/><path class="cls-1" d="M475.53,79.89c5.68.75,8.58,6.36,8.31,8.3-.2,1.57-1,2.09-2.2,1.83-4-.91-6.85-4.53-7.09-9.12C474.5,80,475,79.82,475.53,79.89Z"/><path class="cls-1" d="M601.08,82.5a28.74,28.74,0,0,1,21.19,14L614.7,100c-13.61-21-48.83-6.21-45.85,21.17,1.74,15.89,14.89,33.08,35.5,25.7,5.5-2,10.64-8.77,10.64-8.77l7.29,4.3-2.6,3.26c-12.11,14.45-34.12,13.89-47.11,3.37-14.2-11.51-17.22-38.54-4.39-54.9a30.18,30.18,0,0,1,10.6-8.35A37.89,37.89,0,0,1,601.08,82.5Z"/><path class="cls-2" d="M44.2,82.92h46V91H53v23l36.51.33c-.12,2.71-.23,5.41-.34,8.12H53v32.79H44.2Z"/><path class="cls-2" d="M102,82.92h8.78v63.89h32.46v8.45H102Z"/><path class="cls-1" d="M359.94,82.92h46V91H368.74v23l36.5.33-.33,8.12H368.74v32.79h-8.8Z"/><path class="cls-1" d="M674,82.92V91H637.15v23h36.17v8.45H637.15v24.34H674v8.45l-46-.34.34-72Z"/><path class="cls-1" d="M438.56,84.9a6.24,6.24,0,0,1,3.26-.91c5,.08,9.56,4,7.71,9.06-2.24,6.15-12,8.55-14.87,3.72-1-1.56-.48-4.64.13-7.27A6.27,6.27,0,0,1,436.92,86,10.92,10.92,0,0,1,438.56,84.9Z"/><path class="cls-2" d="M468.88,86c8.25.19,7.16,7,10.41,11.45,2,2.76,11.41,2.55,8.36,14.32-.69,2-6,1.42-7.69,3.6-2.74,3.59,1,6.6-4.67,10.81-2.7,2-7.57-.85-9.56,5.6-2.15,10.16,9.31,4.71,10.86,9.62a8.19,8.19,0,0,1-7.2,10.7,5.43,5.43,0,0,1-3.39-.68c-1.8-1.2-1.45-4.59-2.36-7.05a4.45,4.45,0,0,0-3.7-2.84c-6.85-.75-13.69-4.48-8.05-13.39,2.8-4.43,7.54-1.8,11.19-4.31,2.75-1.89,1.49-7.21,4.4-10.48,2.65-3,8.42-.94,10.08-3.82,3.71-15.36-13.51-6-13.41-18.62A4.72,4.72,0,0,1,468.88,86Z"/><path class="cls-2" d="M171.63,83.14h0A32.49,32.49,0,0,0,153.05,95.9a39.83,39.83,0,0,0-5.4,11.36C139.6,134,160.1,162.13,188.21,156c37.54-8.26,38-67.9-4.17-73.61A32.26,32.26,0,0,0,171.63,83.14Zm13.54,65c-22,4.16-34.47-19.88-28.4-39.9,1.6-5.26,3.91-9.58,7-12.15,14.24-11.88,36.34-5.31,41.79,12.42,4.78,15.57-2.56,36.26-20.38,39.63Z"/><path class="cls-2" d="M290.63,102.87c-5.21-12.66-15.1-20.07-32.28-20.9-3.79-.23-13.63,1.35-19.67,5.64a35.91,35.91,0,0,0-13,18c-8.36,25.82,9.39,55.63,37.86,50.71C285.07,152.57,301.31,128.89,290.63,102.87Zm-28.06,45.3c-21.86,3.91-34.49-18.56-28.4-39.22,1.73-5.85,4.19-10.38,7.58-13.07,14.64-11.7,36.85-4.33,41.64,13.78,4.12,15.44-3.32,35.38-20.81,38.51Z"/><path class="cls-2" d="M347.42,118.76a25,25,0,0,0,4.05-9.13c6.39-29.24-24.84-27.11-50-26.71v72l8.79.34V126.53h14.2L342,154.59c1.49,1.39,7.41.8,10.14.68q-9.11-14.53-18.25-29.08C338.6,122.8,344,123.32,347.42,118.76Zm-37.19-.34V91c16.5-.38,30.29-1.74,32.45,12.5,2.61,16.89-17.3,15.24-32.43,14.88Z"/><path class="cls-1" d="M537.09,126.53l-.68-.67c4.64-1.31,7.78-2.19,11-4.74,9.06-7.09,7.83-26.86-.67-33.46s-27.36-5-42.46-4.74v72.35h8.79V126.53H527q9,14.37,17.92,28.74H555Q546,140.9,537.09,126.53Zm-24-8.11V91c16.63-.38,30.08-1.82,32,12.84,2.15,16.55-16.79,14.9-32,14.54Z"/><path class="cls-1" d="M457.05,93.29c1.14-.57,3.87-.51,4.73.12,5.06,3.64,8.08,15.8.26,18.93-4,1.61-8.25-.22-10.48,3-3.79,5.53.13,12.85-9.13,13.18-2.74.1-4.83-.26-6.42-1.35-2-1.37-4-3.79-3.88-6.69.5-11.72,9.53-9,14.53-11.17a4.45,4.45,0,0,0,2.49-3.23l.72-3.59C451.12,97.28,452.87,95.38,457.05,93.29Z"/><path class="cls-2" d="M489.08,92.73c2.57.32,8.36,6.91,6.54,11.14-.86,1.89-3.57,2.32-4.17.69-1.59-3.53-2-6-3-9.53C488,93.24,488.59,92.67,489.08,92.73Z"/><path class="cls-2" d="M425.87,97.12c1-.18,3-.16,5.72,4.66,1.18,2.08,3.74,3.41,3.41,5.15-1.22,4.73-10.52,8.28-14.2,3.38C416.37,104.4,421.44,97.92,425.87,97.12Z"/><path class="cls-1" d="M493.6,114.79a2.69,2.69,0,0,1,2.28,2.46c.16,5.08-.47,11.36-3.09,10.07C487.21,124.62,490.86,115.15,493.6,114.79Z"/><path class="cls-2" d="M425.31,125.76c11.49,0,10.6,13.72,4.4,16.17-3,1.06-5-3.06-9.2-5.46C416.72,133.29,420.68,125.64,425.31,125.76Z"/><path class="cls-2" d="M479.86,126.71c5-.39,9.1,1.86,7.1,7-.67,1.71-3.64,2.06-6.48,2.15-2.44.08-4.76.06-5.76-.65a4,4,0,0,1-.65-4.33C475.12,128.27,477.14,127.06,479.86,126.71Z"/><path class="cls-2" d="M492.2,135.17c4.85-2.63.66,13.31-1.76,11-.58-.56-1.06-2.88-2.37-4.26C486.4,140.17,489.71,136.52,492.2,135.17Z"/><path class="cls-2" d="M411.41,138.75c5.08-.68,6.87,2.06,6.87,7.31,0,3,.33,4.12-.73,4.12-5-1.49-9.35-3.21-8.77-9.65C409,139.68,409.67,139.11,411.41,138.75Z"/><path class="cls-1" d="M441.29,140.1c11,.29,6.21,7.71,10.95,11.45,2.36,1.85,9.77-.34,10.62,5.45.47,3.1-7,9.08-11.72,5.59-2.08-1.55-1.71-6.77-4.31-7.66s-4.8-.74-7.51-1.69C430.86,150.27,435.12,139.94,441.29,140.1Z"/><path class="cls-1" d="M479.68,149.08c1.33-.7,3.45-.77,3.88-.14.72.72,1.22,2.1.07,2.91-3.45,2.33-2.84,3.78-6.11,6.43a2.15,2.15,0,0,1-2.3,0c-1.2-1-.57-2.79-.29-3.56C476.86,151.31,477.76,150.34,479.68,149.08Z"/><path class="cls-1" d="M432.89,157.69c.7.95,1.05,2.65.16,3.45-2.76,2.5-9.69-.27-11.24-3.84-.51-1.79-.21-3.38.67-3.72C426,152.22,431.18,155.32,432.89,157.69Z"/><path class="cls-2" d="M467.38,160.76a6.67,6.67,0,0,1,2.84-.39,1.86,1.86,0,0,1,1.67,2v.08c-.16,1-.88,1.57-1.65,2.42a6.58,6.58,0,0,1-1.19,1c-1.68,1.1-4.83,2.76-7.41,1.7-.7-.31-.95-1.41-.21-2.48A12.07,12.07,0,0,1,467.38,160.76Z"/><path class="cls-2" d="M441.24,163.46c2.69-1,4.82-1,6.34.39l.14.16,0,0a4.09,4.09,0,0,1-.85,5.73,4.21,4.21,0,0,1-1.38.67c-3.28.87-7.72.07-9.85-2.67-.58-.84.74-1.73,1.42-2a36,36,0,0,1,4-2.24Z"/></svg>