<svg id="Layer_1" data-name="Layer 1" xmlns="http://www.w3.org/2000/svg" xmlns:xlink="http://www.w3.org/1999/xlink" viewBox="0 0 720 223"><defs><style>.cls-1{fill:#fff;}.cls-1,.cls-2,.cls-3,.cls-4,.cls-5{fill-rule:evenodd;}.cls-2{fill:#00203d;}.cls-3{fill:#08f;}.cls-4{fill:#00213f;}.cls-5{fill:#0086ff;}.cls-6{mask:url(#mask);}</style><mask id="mask" x="45.58" y="82.94" width="20.5" height="20.5" maskUnits="userSpaceOnUse"><g id="b"><path id="a" class="cls-1" d="M45.58,82.94h20.5v20.5H45.58Z"/></g></mask></defs><title>Logos</title><path class="cls-2" d="M267.67,130.9c0-12.67,6.12-20.61,17.8-20.61s16.36,8,16.36,19.7c0,12.9-5,21.3-17.29,21.3C271.87,151.29,267.67,142.51,267.67,130.9Zm27.3-.45c0-10.73-3.52-14.28-9.79-14.28s-10.71,4.08-10.71,14.43,3.38,15,10.43,15C291.17,145.56,295,141.48,295,130.45Zm-68.3.45c0-12.67,6.12-20.61,17.8-20.61s16.36,8,16.36,19.7c0,12.9-5,21.3-17.29,21.3C230.87,151.29,226.67,142.51,226.67,130.9Zm27.3-.45c0-10.73-3.53-14.28-9.8-14.28s-10.7,4.08-10.7,14.43,3.38,15,10.42,15C250.16,145.56,254,141.48,254,130.45ZM201,89.78H170.29a1.71,1.71,0,0,0-1.71,1.71v5.12H201a1.71,1.71,0,0,0,1.71-1.71V91.49A1.71,1.71,0,0,0,201,89.78m-6.83,27.33H168.58v6.83h25.63a1.71,1.71,0,0,0,1.71-1.7v-3.42a1.72,1.72,0,0,0-1.71-1.71"/><path class="cls-2" d="M175.42,89.79h-5.13a1.71,1.71,0,0,0-1.71,1.71v59.79h6.84Zm39.29,0h-3.42a1.71,1.71,0,0,0-1.71,1.71v59.79h6.84V91.5a1.71,1.71,0,0,0-1.71-1.71m176,61.5h-6.83V125.13c0-5.55-2.51-8.59-8.09-8.59-4.72,0-10.26,3-12.41,4.84l0-5.47c4-3.12,9.1-5.62,14.77-5.62,8.78,0,12.61,4.68,12.61,13.74Z"/><path class="cls-2" d="M361.63,110.29h-3.42a1.7,1.7,0,0,0-1.7,1.71v39.29h6.83V112a1.71,1.71,0,0,0-1.71-1.71M344.55,100h-3.42a1.72,1.72,0,0,1-1.71-1.71V94.9a1.72,1.72,0,0,1,1.71-1.71h3.42a1.71,1.71,0,0,1,1.7,1.71v3.42a1.71,1.71,0,0,1-1.7,1.71m0,10.26h-3.42a1.71,1.71,0,0,0-1.71,1.71v39.29h6.83V112a1.7,1.7,0,0,0-1.7-1.71m83.87,5.25c1.12-2.58,3.76-4.75,8.11-5.25a1.74,1.74,0,0,1,2,1.49,1.49,1.49,0,0,1,0,.21v2.93a1.7,1.7,0,0,1-1.64,1.71,24.87,24.87,0,0,0-6.21.9,13.77,13.77,0,0,1,3,8.94c0,9.25-7.37,14.68-16.81,14.68a23.14,23.14,0,0,1-7.37-1c-2,0-5.32,5.83,2.72,7l11.45.8c8.49.56,13.45,2.63,13.45,10.69,0,10.05-10.81,13.08-21.13,13.08-15.38,0-18.5-5.26-18.5-10.13,0-4.62,3.28-7.81,6.64-9.41v-.08c-2.8-1.12-4.48-2.71-4.48-5.66,0-3.51,2.56-5.92,5.44-8.15-3.76-2-6.08-6.22-6.08-11.48,0-9,6.8-15.08,17.45-15.08C421.53,111.79,425.7,112.83,428.42,115.54Zm-11.69,2.07c-5.77,0-10.41,2.47-10.41,8.78,0,5.34,3,8.77,10.25,8.77,6,0,10.09-3.11,10.09-8.61C426.66,120.4,422.89,117.61,416.73,117.61Zm6,37-13.37-.79c-3.13,2.07-4.57,3.74-4.57,6.45,0,3.43,2.81,5.75,12.1,5.75q12.72,0,12.73-6.46C429.62,156.62,428.34,155,422.73,154.63ZM317.21,110.29H313.8a1.7,1.7,0,0,0-1.71,1.71v39.29h6.83V112a1.7,1.7,0,0,0-1.71-1.71"/><path class="cls-2" d="M330.7,110.31a25.68,25.68,0,0,0-11.83,5.37l.05,8.88c0-2,6.55-7.66,12-8.09a1.74,1.74,0,0,0,1.64-1.71V112a1.69,1.69,0,0,0-1.89-1.7"/><path class="cls-3" d="M525.64,130.9c0-12.67,6.12-20.61,17.8-20.61s16.36,8,16.36,19.7c0,12.9-5,21.3-17.3,21.3C529.84,151.29,525.64,142.51,525.64,130.9Zm27.3-.45c0-10.73-3.52-14.28-9.8-14.28s-10.7,4.08-10.7,14.43,3.38,15,10.42,15c6.27,0,10.08-4.08,10.08-15.11Zm-97.72-25c0,7.23,6.58,9.28,13.71,11.5,8.41,2.54,17.53,5.33,17.53,16.83,0,12.56-9.67,17.49-20.3,17.49-11.41,0-18.71-4.47-20.68-15.47a1.71,1.71,0,0,1,1.43-1.95h0l3.74-.57a1.71,1.71,0,0,1,1.91,1.28c1.5,5.66,4.64,10.31,13.68,10.31,6.18,0,12.76-2.14,12.76-10,0-7.39-6.42-9.36-13.48-11.41-8.48-2.47-17.76-5-17.76-17.25,0-10.18,8.25-16.42,19.35-16.42,9.6,0,17,3.66,18.66,15a1.7,1.7,0,0,1-1.48,1.91h0l-3.52.43a1.68,1.68,0,0,1-1.86-1.3c-1-5.1-3.61-9.68-11.71-9.68-8.8,0-12,4-12,9.28m65.24,41.87a1.7,1.7,0,0,1-.91,1.94,21.51,21.51,0,0,1-8.78,2c-7.62,0-11.32-3.49-11.32-11.66v-22.5h-4.56a1.72,1.72,0,0,1-1.71-1.72h0V112a1.71,1.71,0,0,1,1.71-1.71h4.56V98.93a1.73,1.73,0,0,1,1.46-1.71l3.77-.58a1.73,1.73,0,0,1,2,1.45,1.1,1.1,0,0,1,0,.26v11.94h9.56a1.71,1.71,0,0,1,1.71,1.71h0v3.41a1.72,1.72,0,0,1-1.71,1.72h-9.56v21.54c0,4.29.77,6.67,5.69,6.67a19.23,19.23,0,0,0,5.37-1.29,1.69,1.69,0,0,1,2.18,1,1.33,1.33,0,0,1,.05.19l.51,2.08Zm148-25.33-3.64.72a1.7,1.7,0,0,1-2-1.14c-1.08-3.64-3.06-5.8-8.71-5.8-6.37,0-8.41,2.52-8.41,5.5,0,4,3.57,5.18,9.68,6.33,8,1.53,15.54,3,15.54,11.76,0,7.48-6.45,11.91-17.07,11.91-9.29,0-15.15-3-17-9.74a1.67,1.67,0,0,1,1.27-2l3.69-.91a1.69,1.69,0,0,1,2,1c1.26,3.51,3.58,6.15,10.42,6.15,5.27,0,9.09-1.46,9.09-5.66S659.8,135,653.85,134c-7.14-1.3-15.71-2.68-15.71-11.84,0-7.94,7.3-11.83,16.13-11.83,9.4,0,13.77,3.64,15.52,9.51a1.73,1.73,0,0,1-1.12,2.16l-.18.05m-91.6-6.37a25.49,25.49,0,0,1,11.78-5.33,1.69,1.69,0,0,1,1.89,1.7v2.75a1.73,1.73,0,0,1-1.64,1.7c-5.48.44-12,6.08-12,8.1v26.73h-6.84V112a1.71,1.71,0,0,1,1.71-1.71h3.42a1.71,1.71,0,0,1,1.71,1.71v3.64Zm18.79,15.19c0-14.36,8.43-20.54,18.54-20.54,11,0,15.63,7.25,15.63,16.95,0,1.09,0,2.3-.15,3.57a1.7,1.7,0,0,1-1.7,1.54H603c.3,10,4.75,13.14,11,13.14,5,0,7.6-2,8.87-5.59a1.64,1.64,0,0,1,1.93-1l2.87.64a1.66,1.66,0,0,1,1.27,2.1c-2.12,6.48-7.89,9.66-15.17,9.66-14,0-18.16-9.7-18.16-20.46Zm27-4c0-7-2.68-10.92-8.89-10.92-5.21,0-10.27,3.13-10.65,10.92Z"/><path class="cls-4" d="M62.66,165H49a3.42,3.42,0,0,1-3.41-3.42V147.86A3.41,3.41,0,0,1,49,144.45H62.66a3.42,3.42,0,0,1,3.42,3.41v13.67A3.42,3.42,0,0,1,62.66,165"/><path class="cls-5" d="M72.38,134.2H49.52a3.94,3.94,0,0,1-3.94-3.95V117.64a3.94,3.94,0,0,1,3.94-4H72.38a4,4,0,0,1,4,4v12.61a4,4,0,0,1-4,3.95"/><g class="cls-6"><path class="cls-4" d="M63.12,103.44H48.54a3,3,0,0,1-3-3h0V85.9a3,3,0,0,1,3-3H63.12a3,3,0,0,1,3,3v14.59a3,3,0,0,1-3,3"/></g><path class="cls-3" d="M124,103.44H79.9a3.56,3.56,0,0,1-3.57-3.56V86.51a3.57,3.57,0,0,1,3.57-3.57H124a3.57,3.57,0,0,1,3.57,3.57V99.88a3.56,3.56,0,0,1-3.57,3.56"/><path class="cls-2" d="M103.66,134.2H90a3.42,3.42,0,0,1-3.42-3.42V117.11A3.42,3.42,0,0,1,90,113.69h13.66a3.42,3.42,0,0,1,3.42,3.42v13.67a3.42,3.42,0,0,1-3.42,3.42"/></svg>